<?xml version="1.0" standalone="no"?>
<!DOCTYPE svg PUBLIC "-//W3C//DTD SVG 20010904//EN"
 "http://www.w3.org/TR/2001/REC-SVG-20010904/DTD/svg10.dtd">
<svg version="1.0" xmlns="http://www.w3.org/2000/svg"
 width="512.000000pt" height="512.000000pt" viewBox="0 0 512.000000 512.000000"
 preserveAspectRatio="xMidYMid meet">

<g transform="translate(0.000000,512.000000) scale(0.100000,-0.100000)"
fill="#000000" stroke="none">
<path d="M2765 3920 c-28 -4 -69 -16 -92 -26 -75 -34 -1554 -938 -1599 -977
-26 -23 -56 -64 -75 -103 -28 -57 -33 -76 -33 -147 -1 -68 3 -91 25 -137 14
-30 183 -291 376 -580 192 -289 362 -549 378 -578 36 -66 91 -116 164 -151
l56 -26 945 -3 c970 -3 988 -2 1064 35 43 22 112 90 139 136 47 83 48 96 45
707 l-3 575 -26 55 c-33 70 -99 136 -169 169 -49 23 -69 26 -192 29 -112 3
-139 6 -150 20 -8 9 -127 206 -264 437 -137 231 -266 439 -288 463 -71 77
-192 119 -301 102z m182 -77 c29 -13 68 -43 88 -65 31 -37 525 -857 525 -872
0 -3 -24 -6 -53 -6 l-52 0 -86 138 c-60 97 -90 137 -104 137 -10 0 -20 -5 -22
-11 -2 -5 29 -62 68 -125 39 -62 73 -120 76 -126 4 -10 -149 -13 -709 -15
l-713 -3 -63 -29 c-77 -36 -142 -104 -174 -184 -22 -56 -23 -63 -28 -596 l-5
-539 -327 491 c-365 548 -370 557 -350 671 12 73 50 141 102 182 38 30 1490
913 1562 950 83 42 179 43 265 2z m976 -1013 c99 -37 176 -140 185 -247 l4
-53 -1178 2 -1179 3 3 49 c4 88 62 183 137 224 73 41 59 40 1032 41 918 1 944
0 996 -19z m185 -1027 c-3 -345 -3 -348 -27 -395 -29 -57 -81 -109 -141 -140
l-45 -23 -965 0 -965 0 -42 23 c-66 35 -110 79 -140 140 l-28 57 -3 343 -3
342 1181 0 1181 0 -3 -347z"/>
<path d="M1976 3307 c-38 -33 -42 -57 -10 -57 24 0 84 51 84 71 0 29 -30 23
-74 -14z"/>
<path d="M1516 3031 c-170 -104 -325 -204 -344 -222 -44 -42 -62 -85 -62 -148
0 -86 77 -241 120 -241 28 0 25 24 -9 73 -56 83 -76 167 -52 229 17 44 66 79
373 266 247 150 308 191 306 206 -2 11 -7 21 -13 22 -5 2 -149 -81 -319 -185z"/>
<path d="M2239 1748 c-56 -143 -59 -149 -66 -131 -6 18 -117 153 -121 148 -2
-1 13 -66 34 -144 l37 -141 51 0 52 0 78 188 c43 103 81 193 83 200 4 8 -9 12
-45 12 l-50 0 -53 -132z"/>
<path d="M2672 1873 c-13 -3 -39 -20 -58 -40 -31 -31 -35 -40 -32 -81 3 -42 7
-49 48 -79 93 -67 96 -70 84 -89 -17 -29 -62 -39 -113 -25 -50 13 -61 6 -61
-40 0 -32 19 -39 105 -39 82 0 141 28 160 74 30 72 15 107 -71 162 -36 23 -54
41 -54 55 0 28 41 41 93 29 47 -10 52 -7 60 36 5 27 3 33 -16 38 -24 6 -109 6
-145 -1z"/>
<path d="M3004 1871 c-14 -6 -42 -61 -97 -192 -43 -101 -77 -187 -77 -191 0
-5 22 -8 49 -8 47 0 50 2 56 30 l7 30 73 0 c73 0 74 0 77 -27 3 -25 7 -28 46
-31 35 -3 42 0 42 15 -1 10 -18 99 -38 198 l-38 180 -40 2 c-21 1 -48 -2 -60
-6z m59 -218 l7 -33 -45 0 c-25 0 -45 4 -45 10 0 8 12 43 45 125 6 17 10 12
20 -25 6 -25 14 -60 18 -77z"/>
<path d="M2440 1865 c0 -3 -18 -89 -40 -191 -22 -103 -40 -188 -40 -190 0 -2
22 -4 49 -4 47 0 49 1 54 33 3 17 21 105 40 195 l35 162 -49 0 c-27 0 -49 -2
-49 -5z"/>
</g>
</svg>
